<svg xmlns="http://www.w3.org/2000/svg" version="1.1" xmlns:xlink="http://www.w3.org/1999/xlink" viewBox="0 0 200 200"><rect width="200" height="200" fill="url('#gradient')"></rect><defs><linearGradient id="gradient" gradientTransform="rotate(45 0.5 0.5)"><stop offset="0%" stop-color="#2b00ff"></stop><stop offset="100%" stop-color="#7f23b0"></stop></linearGradient></defs><g><g fill="#ffffff" transform="matrix(3.402178649237473,0,0,3.402178649237473,36.276724388059186,124.19374832930389)" stroke="#45c3f1" stroke-width="0"><path d="M12.71-7.60L12.71-1.76Q11.92-0.88 10.40-0.34Q8.88 0.20 7.06 0.20L7.06 0.20Q4.27 0.20 2.60-1.51Q0.93-3.22 0.81-6.27L0.81-6.27L0.80-7.50Q0.80-9.60 1.54-11.17Q2.29-12.73 3.67-13.58Q5.05-14.42 6.87-14.42L6.87-14.42Q9.52-14.42 10.99-13.21Q12.46-11.99 12.71-9.58L12.71-9.58L9.40-9.58Q9.23-10.77 8.64-11.28Q8.06-11.79 6.98-11.79L6.98-11.79Q5.69-11.79 4.99-10.69Q4.29-9.60 4.28-7.57L4.28-7.57L4.28-6.71Q4.28-4.58 5.00-3.51Q5.73-2.44 7.29-2.44L7.29-2.44Q8.63-2.44 9.29-3.04L9.29-3.04L9.29-5.24L6.90-5.24L6.90-7.60L12.71-7.60ZM23.66-8.30L23.66-5.66L18.13-5.66L18.13 0L14.71 0L14.71-14.22L24.22-14.22L24.22-11.57L18.13-11.57L18.13-8.30L23.66-8.30ZM31.42 0L25.64 0L25.64-14.22L30.75-14.22Q33.50-14.22 34.93-13.21Q36.36-12.21 36.36-10.29L36.36-10.29Q36.36-9.19 35.85-8.41Q35.34-7.63 34.36-7.26L34.36-7.26Q35.47-6.96 36.06-6.16Q36.66-5.36 36.66-4.21L36.66-4.21Q36.66-2.12 35.34-1.07Q34.01-0.02 31.42 0L31.42 0ZM31.47-6.04L29.07-6.04L29.07-2.64L31.32-2.64Q32.25-2.64 32.74-3.06Q33.24-3.49 33.24-4.26L33.24-4.26Q33.24-6.04 31.47-6.04L31.47-6.04ZM29.07-11.57L29.07-8.29L30.86-8.29Q31.98-8.30 32.46-8.70Q32.94-9.10 32.94-9.88L32.94-9.88Q32.94-10.78 32.42-11.18Q31.90-11.57 30.75-11.57L30.75-11.57L29.07-11.57Z"></path></g></g></svg>